<svg id="svg" version="1.1" xmlns="http://www.w3.org/2000/svg" xmlns:xlink="http://www.w3.org/1999/xlink" width="400" height="409.6" viewBox="0, 0, 400,409.6"><g id="svgg"><path id="path0" d="M187.400 0.218 C 75.184 6.830,-9.172 107.133,0.710 222.200 C 5.547 278.517,31.986 328.278,76.600 365.032 C 97.158 381.967,125.690 396.018,152.900 402.605 C 251.801 426.547,351.872 370.936,386.301 272.900 C 391.988 256.705,396.399 235.518,397.293 220.100 C 397.350 219.110,397.487 216.770,397.596 214.900 C 398.381 201.447,397.412 184.122,395.084 170.000 C 378.187 67.516,288.573 -5.744,187.400 0.218 M211.600 19.586 C 220.348 20.352,232.460 22.056,233.069 22.606 C 233.398 22.902,227.946 32.383,224.332 37.800 C 221.399 42.196,214.959 50.800,214.603 50.800 C 214.521 50.800,213.114 49.974,211.477 48.964 C 194.847 38.704,168.764 27.538,155.710 25.089 C 154.556 24.872,154.858 24.709,157.650 24.041 C 167.869 21.598,178.294 20.048,188.800 19.410 C 192.569 19.181,208.376 19.303,211.600 19.586 M256.184 28.824 C 275.507 35.553,297.497 47.878,310.500 59.266 L 311.300 59.967 309.415 63.695 C 301.526 79.297,292.045 93.478,280.245 107.327 L 277.325 110.754 274.812 107.427 C 262.462 91.069,248.869 76.941,233.677 64.670 L 230.454 62.067 232.545 59.383 C 239.401 50.585,245.242 41.446,250.590 31.150 C 251.604 29.198,252.487 27.600,252.551 27.600 C 252.616 27.600,254.251 28.151,256.184 28.824 M140.354 41.311 C 160.762 45.405,180.596 53.041,198.650 63.755 C 200.053 64.587,201.200 65.320,201.199 65.384 C 201.195 65.978,189.959 75.586,184.300 79.835 C 176.930 85.368,161.257 95.184,160.737 94.592 C 160.692 94.542,155.232 82.620,148.602 68.100 C 141.973 53.580,136.423 41.453,136.269 41.150 C 135.900 40.423,135.932 40.424,140.354 41.311 M131.098 76.210 C 137.659 90.559,143.043 102.382,143.063 102.482 C 143.214 103.231,127.544 107.865,119.374 109.488 C 111.902 110.973,97.800 112.523,97.800 111.860 C 97.800 111.754,98.109 110.145,98.486 108.284 C 102.478 88.581,108.158 71.460,116.735 53.272 C 118.546 49.432,118.687 49.197,118.921 49.643 C 119.058 49.905,124.538 61.860,131.098 76.210 M95.486 53.350 C 87.603 71.842,81.803 91.256,78.486 110.250 C 78.326 111.167,78.458 111.159,74.393 110.494 C 66.535 109.209,58.263 106.917,50.600 103.901 C 49.555 103.490,48.626 103.086,48.536 103.003 C 48.351 102.833,52.113 97.136,55.206 92.900 C 65.408 78.931,78.590 65.535,92.572 54.930 C 96.079 52.270,95.906 52.363,95.486 53.350 M331.590 79.500 C 343.863 93.337,354.126 109.131,361.759 125.926 L 362.953 128.553 361.808 131.226 C 352.263 153.524,339.175 174.126,322.745 192.716 L 319.726 196.133 317.775 190.286 C 310.492 168.452,298.548 142.759,288.686 127.706 C 288.395 127.262,288.454 127.171,290.451 124.973 C 303.868 110.211,317.190 91.128,325.208 75.185 L 326.055 73.500 327.847 75.400 C 328.832 76.445,330.516 78.290,331.590 79.500 M221.100 79.332 C 236.492 91.691,250.234 106.305,262.894 123.778 L 263.676 124.857 262.653 125.778 C 254.823 132.837,251.929 135.313,246.580 139.525 C 237.050 147.029,224.596 155.331,213.997 161.245 C 207.219 165.028,195.731 170.797,195.479 170.545 C 195.352 170.419,168.804 112.326,168.857 112.291 C 168.881 112.276,170.520 111.383,172.500 110.306 C 187.897 101.934,204.115 89.925,215.296 78.619 C 216.394 77.508,217.384 76.601,217.496 76.601 C 217.608 76.602,219.230 77.831,221.100 79.332 M42.969 121.588 C 51.520 125.093,61.542 127.901,70.900 129.413 C 72.990 129.751,74.915 130.071,75.178 130.124 C 75.639 130.218,75.651 130.266,75.534 131.561 C 74.587 141.962,74.388 145.804,74.262 156.100 C 74.096 169.570,74.824 184.161,76.138 193.753 L 76.257 194.622 74.779 194.511 C 73.965 194.450,71.815 194.304,70.000 194.186 C 54.165 193.160,36.115 189.970,21.369 185.590 L 20.039 185.195 20.122 184.447 C 22.593 162.283,27.663 143.898,36.756 124.134 C 38.457 120.435,38.719 119.978,39.086 120.066 C 39.314 120.121,41.061 120.806,42.969 121.588 M164.493 149.268 C 171.719 165.090,177.596 178.070,177.554 178.113 C 177.399 178.268,171.336 180.401,167.174 181.766 C 146.904 188.409,126.280 192.511,105.200 194.091 C 100.307 194.457,95.600 194.687,95.600 194.558 C 95.600 194.505,95.379 192.489,95.110 190.080 C 93.064 171.799,92.873 154.073,94.522 135.400 C 94.924 130.845,94.632 131.200,97.974 131.199 C 112.644 131.195,136.959 126.235,150.491 120.487 C 151.291 120.148,149.716 116.910,164.493 149.268 M275.841 143.800 C 287.043 163.024,296.291 184.682,302.711 206.724 C 303.420 209.158,304.000 211.294,304.000 211.472 C 304.000 212.908,283.860 228.705,272.100 236.494 C 260.402 244.242,235.728 257.916,234.999 257.055 C 234.873 256.907,203.964 189.277,203.689 188.549 C 203.580 188.259,203.888 188.043,205.428 187.327 C 226.140 177.702,247.160 164.358,264.700 149.702 C 268.207 146.771,273.488 142.119,273.978 141.527 C 274.310 141.126,274.217 141.012,275.841 143.800 M373.077 158.550 C 377.533 176.883,379.276 194.846,378.387 213.280 C 378.143 218.342,378.315 217.710,375.249 224.800 C 366.284 245.536,353.228 265.283,336.773 282.993 L 333.900 286.086 333.769 281.041 C 333.256 261.347,330.712 240.781,326.393 221.425 L 325.617 217.951 329.361 214.025 C 346.404 196.157,359.268 178.583,370.217 158.211 C 371.226 156.335,372.076 154.800,372.108 154.800 C 372.139 154.800,372.575 156.488,373.077 158.550 M201.783 230.878 C 210.275 249.457,217.149 264.731,217.058 264.822 C 216.295 265.585,198.449 271.636,189.100 274.303 C 169.331 279.940,140.284 285.121,126.601 285.450 L 124.502 285.500 121.097 278.700 C 112.617 261.766,106.321 244.780,101.683 226.322 C 100.500 221.615,98.777 213.957,98.878 213.856 C 98.912 213.822,100.416 213.704,102.220 213.593 C 130.031 211.895,159.753 205.641,183.700 196.449 L 185.700 195.681 186.021 196.391 C 186.198 196.781,193.291 212.300,201.783 230.878 M22.869 205.997 C 39.244 210.290,57.668 213.020,75.348 213.773 C 77.354 213.859,79.051 213.985,79.120 214.053 C 79.188 214.122,79.590 215.892,80.013 217.987 C 84.526 240.368,91.776 262.163,101.573 282.800 L 103.329 286.500 102.615 286.567 C 100.094 286.804,81.388 285.968,74.100 285.293 C 61.158 284.094,40.086 280.758,35.276 279.147 C 32.771 278.308,24.664 252.209,21.902 236.087 C 19.911 224.470,18.388 204.645,19.519 205.080 C 19.695 205.147,21.202 205.560,22.869 205.997 M309.994 237.609 C 312.025 248.877,313.345 260.030,314.242 273.500 C 314.528 277.811,314.598 300.183,314.332 302.600 L 314.167 304.100 312.634 305.316 C 302.543 313.319,292.275 320.266,281.400 326.449 C 275.968 329.537,269.725 332.806,269.572 332.643 C 269.369 332.426,243.199 275.091,243.207 274.882 C 243.211 274.782,245.077 273.800,247.354 272.700 C 269.318 262.086,290.987 248.227,307.773 234.055 C 308.474 233.464,309.078 233.011,309.116 233.049 C 309.154 233.087,309.549 235.139,309.994 237.609 M238.600 311.450 C 245.897 327.428,251.898 340.561,251.936 340.635 C 252.091 340.937,240.526 345.251,233.600 347.474 C 218.930 352.185,205.398 355.235,188.800 357.573 L 187.500 357.756 185.188 356.071 C 167.413 343.112,151.244 326.362,137.722 306.900 L 135.776 304.100 136.938 303.952 C 137.577 303.870,140.350 303.531,143.100 303.198 C 169.882 299.953,198.752 292.772,222.600 283.423 C 223.975 282.884,225.153 282.433,225.217 282.422 C 225.281 282.410,231.303 295.473,238.600 311.450 M358.189 289.750 C 351.997 301.712,345.659 311.506,337.516 321.700 C 335.195 324.605,331.367 329.034,331.265 328.932 C 331.217 328.883,331.403 327.056,331.679 324.872 C 331.954 322.687,332.338 319.254,332.531 317.243 L 332.882 313.586 336.391 310.443 C 342.967 304.552,351.424 295.857,357.783 288.450 C 359.034 286.993,360.098 285.800,360.146 285.800 C 360.195 285.800,359.314 287.578,358.189 289.750 M51.400 301.886 C 59.580 303.180,69.288 304.293,77.600 304.890 C 86.730 305.546,91.069 305.686,102.333 305.693 L 113.966 305.699 114.618 306.800 C 121.980 319.228,133.881 334.683,145.409 346.785 C 148.565 350.098,150.778 352.242,157.900 358.884 L 158.700 359.631 152.200 359.521 C 130.836 359.160,109.161 355.646,89.519 349.359 C 86.385 348.356,84.990 347.269,76.404 339.140 C 65.844 329.142,52.880 313.012,46.491 301.919 L 45.926 300.938 46.413 301.056 C 46.681 301.121,48.925 301.494,51.400 301.886 M311.116 332.538 C 310.184 338.130,309.026 343.855,307.773 349.068 L 307.155 351.635 304.028 353.973 C 298.911 357.797,290.824 363.094,286.200 365.648 L 284.900 366.367 281.268 358.385 L 277.637 350.403 280.168 349.077 C 291.293 343.249,300.084 338.051,308.495 332.326 C 310.032 331.279,311.324 330.458,311.367 330.500 C 311.409 330.542,311.296 331.459,311.116 332.538 M263.800 366.528 C 265.835 370.995,267.526 374.715,267.557 374.796 C 267.588 374.876,266.238 375.491,264.557 376.162 C 257.120 379.128,250.523 381.310,243.037 383.278 L 240.374 383.978 235.666 382.376 C 230.433 380.596,223.566 377.898,219.300 375.947 C 213.851 373.455,213.200 373.143,213.200 373.018 C 213.200 372.948,214.933 372.499,217.050 372.019 C 225.646 370.072,236.872 366.838,245.604 363.794 C 249.999 362.261,259.352 358.714,259.569 358.498 C 259.910 358.156,260.472 359.224,263.800 366.528 M184.195 378.818 C 188.435 381.560,195.742 385.824,199.800 387.924 L 201.300 388.700 197.400 388.764 C 183.618 388.989,165.915 386.476,151.000 382.179 C 147.328 381.120,138.933 378.398,139.038 378.299 C 139.072 378.268,140.360 378.341,141.900 378.461 C 150.214 379.113,178.715 378.523,182.206 377.627 C 182.264 377.612,183.159 378.148,184.195 378.818 " stroke="none" fill="#4494a4" fill-rule="evenodd"></path><path id="path1" d="" stroke="none" fill="#4894a4" fill-rule="evenodd"></path><path id="path2" d="" stroke="none" fill="#4894a4" fill-rule="evenodd"></path><path id="path3" d="" stroke="none" fill="#4894a4" fill-rule="evenodd"></path><path id="path4" d="" stroke="none" fill="#4894a4" fill-rule="evenodd"></path></g></svg>